<?xml version="1.0" encoding="iso-8859-1"?>
<!-- Generator: Adobe Illustrator 19.0.0, SVG Export Plug-In . SVG Version: 6.00 Build 0)  -->
<svg version="1.1" id="Layer_1" xmlns="http://www.w3.org/2000/svg" xmlns:xlink="http://www.w3.org/1999/xlink" x="0px" y="0px"
	 viewBox="0 0 306.502 306.502" style="enable-background:new 0 0 306.502 306.502;" xml:space="preserve">
<g>
	<g>
		<g>
			<g id="XMLID_38_">
				<g>
					<g>
						<g>
							<path style="fill:#FEDE94;" d="M224.877,139.73c8.747,15.54,12.752,34.156,9.772,53.861
								c-5.543,37.167-35.982,66.324-72.925,70.105c-51.874,5.255-95.353-38.513-90.483-90.964
								c3.46-37.648,32.457-68.728,69.368-74.431c19.609-3.012,38.064,1.153,53.444,10.157c3.236,1.89,7.337,1.378,9.965-1.314
								l5.191,5.127l-50.945,51.586c-1.602-0.513-3.268-0.865-5.03-0.865c-9.292,0-16.821,7.626-16.821,17.046
								c0,9.388,7.53,17.014,16.821,17.014c9.292,0,16.821-7.626,16.821-17.014c0-1.41-0.192-2.723-0.513-4.005l51.137-51.746
								l5.511,5.447C223.596,132.393,223.051,136.494,224.877,139.73z"/>
						</g>
					</g>
					<g>
						<g>
							<path style="fill:#F47C6D;" d="M153.234,71.611c59.436,0,107.785,48.958,107.785,109.099
								c0,60.173-48.35,109.131-107.785,109.131S45.449,240.883,45.449,180.71C45.449,120.57,93.798,71.611,153.234,71.611z
								 M251.824,188.24c1.506-20.634-3.268-40.051-12.528-56.584c-2.723-4.838-9.196-5.863-13.105-1.922l-5.511-5.447l5.671-5.767
								c3.204-3.268,3.204-8.523,0-11.791c-3.236-3.268-8.427-3.268-11.663,0l-5.479,5.543l-5.191-5.127
								c3.781-3.813,3.108-10.349-1.506-13.041c-16.437-9.676-35.822-14.707-56.488-13.201c-48.286,3.524-87.6,43.031-91.348,91.893
								c-4.677,61.422,45.755,112.463,106.408,107.689C209.274,276.704,248.235,237.038,251.824,188.24z"/>
						</g>
					</g>
					<g>
						<g>
							<path style="fill:#2D213F;" d="M249.453,101.217c17.526,21.692,28.068,49.375,28.068,79.493
								c0,69.368-55.751,125.792-124.286,125.792c-68.503,0-124.254-56.424-124.254-125.792c0-61.999,44.569-113.617,102.979-123.87
								V45.947h-6.152c-4.55,0-8.234-3.717-8.234-8.331l-0.032-29.189c-0.032-4.614,3.653-8.331,8.202-8.363L177.938,0
								c4.55,0,8.234,3.717,8.234,8.331l0.032,29.189c0.032,4.614-3.653,8.331-8.202,8.363h-6.216V56.36
								c23.454,3.557,44.761,13.81,62.031,28.741l1.858-2.243c-0.032-0.256-0.128-0.545-0.16-0.833
								c-0.16-2.211,0.545-4.39,1.954-6.088l4.582-5.447c2.916-3.524,8.138-3.973,11.599-0.961l9.772,8.395
								c3.46,2.948,3.909,8.234,0.961,11.727l-4.582,5.479c-1.41,1.698-3.428,2.756-5.607,2.916
								c-0.224,0.032-0.449,0.032-0.673,0.032c-0.449,0-0.897-0.032-1.346-0.128L249.453,101.217z M261.02,180.71
								c0-60.141-48.35-109.099-107.785-109.099S45.449,120.57,45.449,180.71c0,60.173,48.35,109.131,107.785,109.131
								S261.02,240.883,261.02,180.71z M169.735,29.189l-0.032-12.496l-35.693,0.064l0.032,12.496L169.735,29.189z M155.317,54.982
								v-8.395h-6.889v8.491c1.602-0.064,3.204-0.128,4.806-0.128C153.939,54.95,154.612,54.982,155.317,54.982z"/>
						</g>
					</g>
					<g>
						<g>
							<path style="fill:#2D213F;" d="M239.296,131.656c9.26,16.533,14.034,35.95,12.528,56.584
								c-3.589,48.798-42.55,88.465-90.74,92.246c-60.653,4.773-111.085-46.268-106.407-107.69
								c3.749-48.862,43.063-88.369,91.348-91.893c20.666-1.506,40.051,3.524,56.488,13.201c4.614,2.691,5.287,9.228,1.506,13.041
								c-2.627,2.691-6.729,3.204-9.965,1.314c-15.38-9.003-33.835-13.169-53.444-10.157c-36.911,5.703-65.908,36.783-69.368,74.431
								c-4.87,52.451,38.609,96.219,90.483,90.964c36.943-3.781,67.382-32.938,72.925-70.105c2.98-19.705-1.025-38.321-9.772-53.861
								c-1.826-3.236-1.282-7.337,1.314-9.997C230.1,125.792,236.572,126.818,239.296,131.656z"/>
						</g>
					</g>
					<g>
						<g>
							<path style="fill:#2D213F;" d="M226.351,106.728c3.204,3.268,3.204,8.523,0,11.791l-5.671,5.767l-51.137,51.746
								c0.32,1.282,0.513,2.595,0.513,4.005c0,9.388-7.53,17.014-16.821,17.014s-16.821-7.626-16.821-17.014
								c0-9.42,7.53-17.046,16.821-17.046c1.762,0,3.428,0.352,5.03,0.865l50.945-51.586l5.479-5.543
								C217.925,103.46,223.115,103.46,226.351,106.728z"/>
						</g>
					</g>
					<g>
						<g>
							<polygon style="fill:#505967;" points="169.703,16.693 169.735,29.189 134.042,29.253 134.01,16.757 							"/>
						</g>
					</g>
				</g>
			</g>
		</g>
		<g>
			<g>
				<path style="fill:#F4CE6E;" d="M76.202,151.303c-2.55,6.793-4.274,13.976-4.96,21.429c-4.87,52.451,38.609,96.219,90.483,90.964
					c4.921-0.503,9.718-1.49,14.367-2.852C101.277,246.061,79.406,188.676,76.202,151.303z"/>
			</g>
		</g>
	</g>
</g>
<g>
</g>
<g>
</g>
<g>
</g>
<g>
</g>
<g>
</g>
<g>
</g>
<g>
</g>
<g>
</g>
<g>
</g>
<g>
</g>
<g>
</g>
<g>
</g>
<g>
</g>
<g>
</g>
<g>
</g>
</svg>
